<svg xmlns="http://www.w3.org/2000/svg" viewBox="0 0 24 24"><defs><style>.cls-1{fill:none;stroke:#d06a5d;stroke-linecap:round;stroke-linejoin:round;}</style></defs><title>counters</title><g id="Layer_2" data-name="Layer 2"><g id="Layer_1-2" data-name="Layer 1"><path class="cls-1" d="M5.5,8.5a2,2,0,0,1,4,0"/><path class="cls-1" d="M14.5,8.5a2,2,0,0,1,4,0"/><path class="cls-1" d="M18.5,17A2.5,2.5,0,0,0,16,14.5a2.37,2.37,0,0,0-2.5,2.34c0,.72.31,1.66.8,1.66h0l4.2,4.37,4.2-4.12v0a2.42,2.42,0,0,0,.8-1.8,2.5,2.5,0,0,0-5,0Z"/><path class="cls-1" d="M15.31,19.83A8.5,8.5,0,0,1,3.5,12"/><path class="cls-1" d="M20.5,12a8.47,8.47,0,0,1-.38,2.53"/><path class="cls-1" d="M17.54,22.08A11.5,11.5,0,1,1,23.5,12,11.37,11.37,0,0,1,23,15.42"/></g></g></svg>