<svg xmlns="http://www.w3.org/2000/svg" viewBox="0 0 23 18.88"><defs><style>.cls-1{fill:none;stroke:#d06a5d;stroke-linecap:round;stroke-linejoin:round;}</style></defs><title>ctt</title><g id="Layer_2" data-name="Layer 2"><g id="Layer_1-2" data-name="Layer 1"><path class="cls-1" d="M2.07,1.31A12.4,12.4,0,0,0,11.33,6c-.25-1-.1-3.57,1.83-4.7a4.57,4.57,0,0,1,5.9.59A10,10,0,0,0,21.91.83a4.28,4.28,0,0,1-2,2.42,8.37,8.37,0,0,0,2.55-.61,9,9,0,0,1-2.28,2.29C21.1,12.63,11.87,22.75.5,16.36a9,9,0,0,0,6.65-1.92,5.06,5.06,0,0,1-4.65-3A2.78,2.78,0,0,0,5,11.26,4.93,4.93,0,0,1,1.12,6.69a2.8,2.8,0,0,0,2.27.63A4.5,4.5,0,0,1,2.07,1.31Z"/></g></g></svg>