<svg xmlns="http://www.w3.org/2000/svg" viewBox="0 0 21 23.5"><defs><style>.cls-1{fill:none;stroke:#d06a5d;stroke-linecap:round;stroke-linejoin:round;}</style></defs><title>floating</title><g id="Layer_2" data-name="Layer 2"><g id="Layer_1-2" data-name="Layer 1"><path class="cls-1" d="M16.36,9.5a6.06,6.06,0,0,0-6.07-6,5.91,5.91,0,0,0-5.89,6A5,5,0,0,0,7,14.37V20h7V14.37C15,13.28,16.36,11.51,16.36,9.5Z"/><path class="cls-1" d="M13.22,20c0,1-1.34,3-3,3s-3-2-3-3Z"/><line class="cls-1" x1="7.5" y1="15" x2="13.5" y2="15"/><line class="cls-1" x1="7.22" y1="15.5" x2="13.22" y2="16.5"/><line class="cls-1" x1="7.22" y1="17.5" x2="13.22" y2="18.5"/><line class="cls-1" x1="0.5" y1="10" x2="2.5" y2="10"/><line class="cls-1" x1="18.5" y1="10" x2="20.5" y2="10"/><line class="cls-1" x1="6.22" y1="0.5" x2="7.22" y2="2.5"/><line class="cls-1" x1="14.22" y1="0.5" x2="13.22" y2="2.5"/><line class="cls-1" x1="1.22" y1="4.5" x2="3.22" y2="5.5"/><line class="cls-1" x1="19.22" y1="4.5" x2="17.22" y2="5.5"/></g></g></svg>