<svg xmlns="http://www.w3.org/2000/svg" viewBox="0 0 23.04 21.6"><defs><style>.cls-1,.cls-2{fill:none;stroke:#d06a5d;}.cls-1{stroke-linecap:round;stroke-linejoin:round;}.cls-2{stroke-miterlimit:10;}</style></defs><title>followers</title><g id="Layer_2" data-name="Layer 2"><g id="Layer_1-2" data-name="Layer 1"><path class="cls-1" d="M15.14,7.21V9.12s1,.43,1,1v1a2.06,2.06,0,0,1-1.71,1.82A3.53,3.53,0,0,1,11,16.31H10.9a3.31,3.31,0,0,1-3.08-3.45c-.79,0-1.3-1-1.3-1.82v-1c0-.53,0-1,1-1V7.5c0-1.28.64-2.35,1.91-2.35C11.79,4.33,15.14,2.42,15.14,7.21Z"/><path class="cls-1" d="M14.4,16.31a4.69,4.69,0,0,1,4.83,4.79H2.9a4.68,4.68,0,0,1,4.83-4.79"/><path class="cls-1" d="M2.9,6.73A2.39,2.39,0,0,0,.5,9.12"/><path class="cls-1" d="M20.15,6.73a2.39,2.39,0,0,1,2.39,2.39"/><path class="cls-1" d="M15.14,7.21V9.12s1,.43,1,1v1a2.06,2.06,0,0,1-1.71,1.82A3.53,3.53,0,0,1,11,16.31H10.9a3.31,3.31,0,0,1-3.08-3.45c-.79,0-1.3-1-1.3-1.82v-1c0-.53,0-1,1-1V7.5c0-1.28.64-2.35,1.91-2.35C11.79,4.33,15.14,2.42,15.14,7.21Z"/><path class="cls-1" d="M14.4,16.31a4.69,4.69,0,0,1,4.83,4.79H2.9a4.68,4.68,0,0,1,4.83-4.79"/><path class="cls-1" d="M2.9,6.73A2.39,2.39,0,0,0,.5,9.12"/><path class="cls-1" d="M20.15,6.73a2.39,2.39,0,0,1,2.39,2.39"/><path class="cls-2" d="M6.73,2.42c0,1.06-.86,3.83-1.92,3.83S2.9,3.48,2.9,2.42a1.92,1.92,0,1,1,3.83,0Z"/><path class="cls-2" d="M16.31,2.42c0,1.06.86,3.83,1.92,3.83s1.92-2.77,1.92-3.83a1.92,1.92,0,1,0-3.84,0Z"/></g></g></svg>