<svg xmlns="http://www.w3.org/2000/svg" viewBox="0 0 24.01 24"><defs><style>.cls-1{fill:none;stroke:#d06a5d;stroke-linecap:round;stroke-linejoin:round;}</style></defs><title>media</title><g id="Layer_2" data-name="Layer 2"><g id="Layer_1-2" data-name="Layer 1"><path class="cls-1" d="M14.58,23.21a11.48,11.48,0,1,1,7.94-6.55"/><path class="cls-1" d="M14.51,20.12l-.58.16A8.78,8.78,0,0,1,12,20.5,8.51,8.51,0,0,1,3.5,12"/><path class="cls-1" d="M20.5,12a8.4,8.4,0,0,1-.7,3.37,7.57,7.57,0,0,1-.59,1.13"/><path class="cls-1" d="M5.5,8.5a2,2,0,0,1,4,0"/><path class="cls-1" d="M14.5,8.5a2,2,0,0,1,4,0"/><path class="cls-1" d="M14.78,17.86c1-.71,1-2,2-3.77V12.35c1-1,3.06.15,2,4.15h3.12c.49,0,1.64.47,1.64,1.23,0,.52-.11.95-.33,1a1.33,1.33,0,0,1-.25,1.67A1.52,1.52,0,0,1,22.27,22c.09.62-.44,1.46-1,1.46H15.34c-.43,0-.56-.2-.56-.53Z"/></g></g></svg>