<svg width="189" height="32" viewBox="0 0 189 32" xmlns="http://www.w3.org/2000/svg"><title>ss-logoss-logo</title><g fill-rule="nonzero" fill="#FFF"><path d="M43.4511628 20.5653333c-.001507-.2575646.1486749-.4917766.3830232-.5973333.1266525-.1258874.3007383-.1918209.4787791-.1813333.2517672.0031524.4908256.1113896.6596512.2986666 1.0726664 1.4949179 2.8132132 2.361421 4.6494767 2.3146667.8736037.0196781 1.7343329-.2136448 2.4790117-.672.6917246-.3991411 1.1025038-1.1527839 1.0639534-1.952.0285606-.7554525-.3438144-1.4696385-.9788372-1.8773333-.8513842-.4942714-1.7736619-.8540494-2.7343604-1.0666667-1.3749128-.3008163-2.6836621-.85023-3.8621512-1.6213333-.9350195-.6739435-1.4609322-1.7807739-1.3937791-2.9333334-.0108515-.7829549.2276863-1.5489695.6809303-2.1866666.4707166-.65934436 1.1103353-1.1789778 1.851279-1.50400003.8376738-.36869098 1.7452029-.55065964 2.6598838-.53333334.8802572.00139887 1.7528483.1640713 2.5747674.48.8582993.32619496 1.6198149.86575386 2.2130233 1.56799997.1796879.1443562.2787582.3668394.2659883.5973334-.0012558.2436985-.1103935.4742536-.297907.6293333-.1495322.1231062-.338587.1875488-.5319767.1813333-.2017077-.0027652-.3936688-.0874435-.5319767-.2346666-.465231-.5280248-1.0435521-.9437275-1.6916861-1.216-.6733-.2836338-1.3976417-.4252406-2.127907-.41600003-.8447049-.02621515-1.6780696.2002954-2.3938953.65066663-.6561338.429793-1.0334091 1.1781337-.9894768 1.9626667.0120449.7499248.4160116 1.4384196 1.0639535 1.8133333.9453141.5176692 1.9590663.8983468 3.0109884 1.1306667.8765181.2063351 1.7315169.4956331 2.5534884.864.6542356.3009692 1.2216368.7633877 1.6491279 1.344.454614.6750966.6786076 1.479787.6383721 2.2933333.0352539 1.2222019-.5443643 2.3803867-1.5427326 3.0826667-1.118315.789269-2.4634688 1.1900982-3.8302325 1.1413333-2.2454737.0817258-4.3924917-.9270071-5.7666279-2.7093333-.1220244-.1958747-.1916463-.4199678-.2021512-.6506667zM71.5182558 20.064c-.6337666 1.1862375-1.5841978 2.1723315-2.745 2.848-2.3707427 1.3697035-5.2897224 1.3697035-7.6604651 0-1.1447721-.6822926-2.0798248-1.6677089-2.7024419-2.848-1.3046182-2.5401884-1.3046182-5.5558116 0-8.096.6259285-1.1806924 1.5599963-2.1687575 2.7024419-2.85866667 2.3653548-1.3897483 5.2951103-1.3897483 7.6604651 0 1.1424456.68990916 2.0765134 1.67797427 2.7024419 2.85866667 1.3081686 2.5393246 1.3081686 5.5566754 0 8.096h.0425581zM69.9755233 12.8c-.4696818-.925412-1.1836194-1.7038913-2.0640698-2.2506667-.8780903-.5458995-1.8926987-.8307143-2.9258721-.8213333-1.0265824-.01004764-2.0345465.2749749-2.904593.8213333-.8805881.549862-1.5972453 1.3272993-2.0747093 2.2506667-.5114166.9877989-.7709397 2.0871718-.755407 3.2-.0182145 1.1131213.241462 2.2131442.755407 3.2.4741036.9223244 1.1870588 1.6997325 2.0640697 2.2506667.8700465.5463584 1.8780107.8313809 2.9045931.8213333 2.1156367.0188148 4.056728-1.1736529 5.0005814-3.072.9799064-2.0202333.9799064-4.3797667 0-6.4zM85.307093 8.37333333c.6897443.160468 1.3430925.44997708 1.9257558.85333334.4051444.25199597.6630143.68552667.6915698 1.16266663.0001611.2196725-.0792341.4319329-.2234302.5973334-.1328074.1705733-.3374345.2692026-.5532558.2666666-.1708715.0075164-.3404238-.0331321-.4894186-.1173333-.1543783-.1012345-.2971075-.2192864-.4255814-.352-.2166979-.2269421-.4681113-.4177834-.7447675-.5653333-.374774-.1611961-.7678091-.2758252-1.1703488-.34133337-.5163396-.09049857-1.0398681-.13334458-1.5640116-.128-1.0550203-.01187543-2.091744.27663227-2.9897094.83199997-.8982351.5494545-1.6330592 1.3303543-2.1279069 2.2613334-.5274335.9825874-.7948386 2.0843147-.7766861 3.2-.013619 1.1113642.2419482 2.2094453.7447675 3.2.9614764 1.9174193 2.934808 3.1119031 5.0750581 3.072.5728993.0141873 1.1451904-.0467737 1.7023256-.1813334.4384727-.1219276.8628646-.289972 1.2661046-.5013333.2502957-.1600764.4885504-.3383319.7128489-.5333333.1292435-.1148084.2680656-.2182984.4149418-.3093334.1158857-.0692013.2481397-.1060322.3830233-.1066666.2111523-.0089267.416145.072504.5638953.224.1451814.159857.2216404.3706555.2127907.5866666-.0735614.441783-.3332893.8304252-.7128488 1.0666667-.5882911.44764-1.2511153.7871203-1.9576744 1.0026667-.8938585.2865633-1.8278957.4270262-2.7662791.416-1.3614933.0131074-2.6994252-.3564088-3.8621511-1.0666667-1.1255045-.6829232-2.036294-1.6699716-2.6279652-2.848-.605015-1.2665238-.8969633-2.6604735-.8511628-4.064-.017731-1.3843587.307641-2.7514739.9469186-3.9786667 1.2780047-2.4700332 3.8428-3.99960586 6.6177907-3.94666663.8709029-.0098761 1.7395677.09047222 2.585407.29866666zM91.3290698 5.87733333c-.2234392-.21294247-.3437653-.51257903-.3298256-.82133333v-.29866667c-.0204683-.3120249.1054379-.61575913.3404651-.82133333.270221-.19920708.6014602-.29732276.9362791-.27733333.7944186 0 1.1916279.35555555 1.1916279 1.06666666V5.024c.0194654.3054804-.0929121.60462283-.3085465.82133333-.2549002.20604588-.5775845.30880697-.9043605.288-.3293152.03016528-.6583281-.06082836-.9256395-.256zm1.5640116 17.50399997c-.2557781.2617973-.6447933.3410511-.9822054.2001043-.3374121-.1409469-.5552022-.4736811-.5498876-.8401043V9.04533333c-.0373304-.34147805.1233655-.67429238.4136791-.85676303.2903137-.18247066.6591304-.18247066.949444 0 .2903136.18247065.4510096.51528498.4136792.85676303V22.7413333c.0071271.2396095-.0853602.4714175-.2553488.64h.0106395zM110.724942 8.69333333c.170103.1772138.262102.4154846.255349.66133334V22.752c.03733.3414781-.123366.6742924-.413679.856763-.290314.1824707-.659131.1824707-.949444 0-.290314-.1824706-.45101-.5152849-.41368-.856763v-1.9946667c-.533923.9337054-1.300036 1.7127964-2.223662 2.2613334-.956303.6028406-2.062227.9243764-3.191861.928-1.270974.0091621-2.515744-.36225-3.574884-1.0666667-1.0709863-.7113383-1.9310131-1.698838-2.4896508-2.8586667-.6304515-1.2466526-.9619775-2.6236199-.9681976-4.0213333-.0209826-1.4094832.2964924-2.8033502.9256395-4.064.5677316-1.1489309 1.4354742-2.1221014 2.5109299-2.816 2.063552-1.2960044 4.669752-1.35333957 6.788024-.14933333.934929.5147326 1.705761 1.28383293 2.223662 2.21866663V9.344c-.006753-.24584875.085246-.48411955.255349-.66133333.168099-.17200287.398181-.26893063.638372-.26893063.240192 0 .470273.09692776.638372.26893063l-.010639.01066666zm-4.043023 12.79999997c.834874-.5644261 1.500624-1.3461873 1.925755-2.2613333.471978-.9998598.712048-2.0938702.70221-3.2.017839-1.1069509-.222626-2.2027613-.70221-3.2-.428089-.9103646-1.093424-1.6879531-1.925755-2.2506667-.822401-.5470662-1.790024-.83326127-2.776919-.8213333-.984162-.01435323-1.950491.2640356-2.776919.8-.834812.5553231-1.5010622 1.3302917-1.9257554 2.24-.4795837.9972387-.7200488 2.0930491-.7022093 3.2-.0118024 1.10402.2207576 2.1969247.6809302 3.2.4166113.9173948 1.0797375 1.7004023 1.9151165 2.2613333 1.702535 1.0922891 3.88322 1.0922891 5.585756 0v.032zM117.353372 23.3813333c-.255778.2617973-.644793.3410511-.982205.2001043-.337412-.1409469-.555203-.4736811-.549888-.8401043V2.47466667c0-.49484714.400133-.896.893721-.896.493588 0 .893721.40115286.893721.896V22.7413333c.007127.2396095-.08536.4714175-.255349.64zM120.906977 20.2666667c.059838-.8704076.768603-1.5532954 1.638488-1.5786667.457419.0179236.887764.2220885 1.191628.5653333.52704.5665629 1.154871 1.029593 1.851279 1.3653334.735135.3168244 1.530169.4696855 2.330058.448 1.546279-.0568889 2.319419-.6435556 2.319419-1.76.015694-.5539668-.291802-1.0663797-.787326-1.312-.777738-.3940473-1.599106-.6947899-2.447093-.896-.957151-.2506026-1.895707-.5678164-2.808837-.9493334-.730482-.3222632-1.372784-.8161949-1.872558-1.44-.557606-.7487312-.836159-1.6695464-.787326-2.6026666-.016872-.8977551.272112-1.7744415.819244-2.48533337.558813-.71708986 1.291346-1.2789066 2.127907-1.632.884883-.39086822 1.841882-.59075138 2.808838-.58666666 1.036485.00364038 2.06377.1951666 3.032267.56533333.894513.32882185 1.684528.89245192 2.2875 1.632.249076.29918802.38473.6769668.383023 1.0666667.004287.4458606-.205542.8665884-.563895 1.1306666-.268466.2158457-.602792.3325931-.946919.3306667-.396541.0134405-.781191-.1369555-1.063953-.416-.371954-.4586355-.845568-.8238833-1.38314-1.0666667-.603562-.2640659-1.256676-.3950219-1.915116-.384-1.503721 0-2.255581.5475556-2.255581 1.6426667-.018631.3984288.13217.7860847.414942 1.0666667.303673.2863343.667113.5013106 1.063953.6293333.425581.1493333 1.024942.3342222 1.798081.5546667.911131.2450212 1.803588.5551478 2.670524.928.718271.3229897 1.34126.8263258 1.808721 1.4613333.526317.7581411.788133 1.669334.744767 2.592.017787.9244898-.28703 1.8261811-.861802 2.5493333-.582188.7341807-1.344824 1.3039406-2.213023 1.6533334-.878579.3728454-1.822871.5650872-2.776919.5653333-1.246142.0114797-2.483575-.2091497-3.649361-.6506667-1.110369-.4245556-2.072155-1.1662782-2.766279-2.1333333-.150544-.2576571-.217469-.5558618-.191511-.8533333zM149.048547 9.216c.851834 1.5197255 1.254109 3.2513287 1.159709 4.992v7.616c.016644.4838837-.163896.9537134-.500058 1.3013333-.710535.693712-1.842955.693712-2.553489 0-.336162-.3476199-.516702-.8174496-.500058-1.3013333v-7.6266667c.052032-.9077389-.186541-1.8084055-.68093-2.5706666-.581285-.6826785-1.461084-1.0338993-2.351337-.9386667-.998892-.058263-1.977239.3008643-2.702442.992-.655602.6698136-1.009283 1.5793957-.978837 2.5173333v7.616c.01789.4840932-.162831.9543968-.500058 1.3013334-.710535.693712-1.842955.693712-2.553489 0-.337227-.3469366-.517949-.8172402-.500058-1.3013334V9.52533333c-.013736-.48022413.16659-.945651.500058-1.29066666.710534-.693712 1.842954-.693712 2.553489 0 .333468.34501567.513794.81044253.500058 1.29066666v.50133337c.58039-.75033666 1.303694-1.37759042 2.127907-1.84533337.853903-.51575877 1.833239-.78520906 2.830116-.77866666 2.000232.0071111 3.383372.61155555 4.149419 1.81333333zM168.210349 7.91466667c.339965.34952166.520906.82425517.500058 1.312V21.8133333c.016644.4838838-.163896.9537134-.500058 1.3013334-.333742.3458645-.796917.5354767-1.276744.5226666-.473665.0193411-.933457-.1627207-1.266105-.5013333-.330792-.3440391-.517383-.8021615-.521337-1.28-.559452.6224947-1.240195 1.1234637-2.000233 1.472-.828937.4029213-1.738662.6108675-2.659883.608-1.31465.0124509-2.604616-.3581095-3.713198-1.0666667-1.122322-.7240517-2.029956-1.7371528-2.627965-2.9333333-.6621-1.3228149-.994328-2.7868801-.968198-4.2666667-.02446-1.4771932.300017-2.9392323.946919-4.2666666.582328-1.1996741 1.479853-2.217497 2.596046-2.94400003 1.083717-.70256128 2.348185-1.07323146 3.638721-1.06666667.915968-.00536116 1.82382.17232074 2.670523.52266667.782194.31035892 1.50281.75828055 2.127907 1.32266666-.015414-.48367565.164947-.95304075.500058-1.30133333.332985-.34698455.796676-.5368078 1.276745-.52266667.476204-.01581772.937925.165484 1.276744.50133334zM164.082209 19.2c1.622017-2.096769 1.622017-5.0285643 0-7.1253333-.789994-.906876-1.93237-1.4272226-3.133343-1.4272226s-2.343349.5203466-3.133343 1.4272226c-1.610806 2.1006033-1.610806 5.02473 0 7.1253333.772342.925135 1.925217 1.4440723 3.128024 1.408 1.20524.0330315 2.3601-.4850371 3.138662-1.408zM184.510116 8.46933333c1.122322.7240517 2.029956 1.73715287 2.627965 2.93333337.661699 1.3229591.993904 2.786924.968198 4.2666666.02446 1.4771932-.300017 2.9392324-.946919 4.2666667-.581422 1.2002795-1.479143 2.2183236-2.596046 2.944-1.083197.7037003-2.348011 1.0744721-3.638721 1.0666667-.929162.0031738-1.847814-.1970426-2.691802-.5866667-.788159-.3369046-1.509058-.8139116-2.127907-1.408v5.7813333c.016644.4838838-.163896.9537134-.500058 1.3013334-.332985.3469845-.796676.5368078-1.276745.5226666-.476204.0158178-.937925-.165484-1.276744-.5013333-.339965-.3495217-.520906-.8242552-.500058-1.312V9.52533333c-.013736-.48022413.16659-.945651.500058-1.29066666.710534-.693712 1.842954-.693712 2.553489 0 .333468.34501567.513794.81044253.500058 1.29066666V9.6c.547158-.65575338 1.224802-1.1898054 1.989593-1.568.821434-.44095417 1.738747-.67178314 2.670523-.672 1.329719-.00536108 2.631816.38033047 3.745116 1.10933333zM183.446163 19.232c1.610806-2.1006033 1.610806-5.02473 0-7.1253333-.806155-.8825915-1.944973-1.3851856-3.138663-1.3851856-1.19369 0-2.332508.5025941-3.138663 1.3851856-1.622016 2.096769-1.622016 5.0285643 0 7.1253333.788109.9101004 1.931183 1.4327991 3.133343 1.4327991 1.202161 0 2.345234-.5226987 3.133343-1.4327991h.01064zM21.9280814 1.00266667l7.1710465 3.94666666c.3617442.192.3617442.512 0 .71466667l-15.7465116 8.6613333c-1.5959303.896-2.127907 2.1333334-1.5746512 3.2746667 0 .096 0 .192-.1808721.256-.1971282.0841837-.4199648.0841837-.617093 0l-9.80965116-5.44c-.3617442-.192-.3617442-.512 0-.7146667L20.6300581 1.03466667c.4054214-.20755654.8829164-.21932816 1.2980233-.032zM8.34139535 30.9973333l-7.1710465-3.9466666c-.3617442-.192-.3617442-.512 0-.7146667l15.74651165-8.6613333c1.5959302-.896 2.1279069-2.1333334 1.5746511-3.2746667 0-.096 0-.192.1808721-.256.1971282-.0841837.4199648-.0841837.617093 0l9.8096512 5.3973333c.3617442.192.3617442.512 0 .7146667L9.6394186 30.9226667c-.39888068.2213322-.87650923.248807-1.29802325.0746666z"/></g></svg>