<?xml version="1.0" encoding="UTF-8"?>
<svg width="189px" height="32px" viewBox="0 0 189 32" version="1.1" xmlns="http://www.w3.org/2000/svg" xmlns:xlink="http://www.w3.org/1999/xlink">
    <!-- Generator: Sketch 43.1 (39012) - http://www.bohemiancoding.com/sketch -->
    <title>ss-logo-dark</title>
    <desc>Created with Sketch.</desc>
    <defs></defs>
    <g id="Page-1" stroke="none" stroke-width="1" fill="none" fill-rule="evenodd">
        <g id="ss-logo-dark" fill-rule="nonzero">
            <path d="M43.4511628,20.5653333 C43.4496558,20.3077687 43.5998377,20.0735567 43.834186,19.968 C43.9608385,19.8421126 44.1349243,19.7761791 44.3129651,19.7866667 C44.5647323,19.7898191 44.8037907,19.8980563 44.9726163,20.0853333 C46.0452827,21.5802512 47.7858295,22.4467543 49.622093,22.4 C50.4956967,22.4196781 51.3564259,22.1863552 52.1011047,21.728 C52.7928293,21.3288589 53.2036085,20.5752161 53.1650581,19.776 C53.1936187,19.0205475 52.8212437,18.3063615 52.1862209,17.8986667 C51.3348367,17.4043953 50.412559,17.0446173 49.4518605,16.832 C48.0769477,16.5311837 46.7681984,15.98177 45.5897093,15.2106667 C44.6546898,14.5367232 44.1287771,13.4298928 44.1959302,12.2773333 C44.1850787,11.4943784 44.4236165,10.7283638 44.8768605,10.0906667 C45.3475771,9.43132234 45.9871958,8.91168891 46.7281395,8.58666667 C47.5658133,8.21797569 48.4733424,8.03600703 49.3880233,8.05333333 C50.2682805,8.0547322 51.1408716,8.21740464 51.9627907,8.53333333 C52.82109,8.85952829 53.5826056,9.39908719 54.175814,10.1013333 C54.3555019,10.2456895 54.4545722,10.4681727 54.4418023,10.6986667 C54.4405465,10.9423652 54.3314088,11.1729203 54.1438953,11.328 C53.9943631,11.4511062 53.8053083,11.5155488 53.6119186,11.5093333 C53.4102109,11.5065681 53.2182498,11.4218898 53.0799419,11.2746667 C52.6147109,10.7466419 52.0363898,10.3309392 51.3882558,10.0586667 C50.7149558,9.77503291 49.9906141,9.63342609 49.2603488,9.64266667 C48.4156439,9.61645152 47.5822792,9.84296208 46.8664535,10.2933333 C46.2103197,10.7231263 45.8330444,11.471467 45.8769767,12.256 C45.8890216,13.0059248 46.2929883,13.6944196 46.9409302,14.0693333 C47.8862443,14.5870025 48.8999965,14.9676801 49.9519186,15.2 C50.8284367,15.4063351 51.6834355,15.6956331 52.505407,16.064 C53.1596426,16.3649692 53.7270438,16.8273877 54.1545349,17.408 C54.6091489,18.0830966 54.8331425,18.887787 54.792907,19.7013333 C54.8281609,20.9235352 54.2485427,22.08172 53.2501744,22.784 C52.1318594,23.573269 50.7867056,23.9740982 49.4199419,23.9253333 C47.1744682,24.0070591 45.0274502,22.9983262 43.653314,21.216 C43.5312896,21.0201253 43.4616677,20.7960322 43.4511628,20.5653333 Z" id="Shape" fill="#2A2E38"></path>
            <path d="M71.5182558,20.064 C70.8844892,21.2502375 69.934058,22.2363315 68.7732558,22.912 C66.4025131,24.2817035 63.4835334,24.2817035 61.1127907,22.912 C59.9680186,22.2297074 59.0329659,21.2442911 58.4103488,20.064 C57.1057306,17.5238116 57.1057306,14.5081884 58.4103488,11.968 C59.0362773,10.7873076 59.9703451,9.79924249 61.1127907,9.10933333 C63.4781455,7.71958503 66.407901,7.71958503 68.7732558,9.10933333 C69.9157014,9.79924249 70.8497692,10.7873076 71.4756977,11.968 C72.7838663,14.5073246 72.7838663,17.5246754 71.4756977,20.064 L71.5182558,20.064 Z M69.9755233,12.8 C69.5058415,11.874588 68.7919039,11.0961087 67.9114535,10.5493333 C67.0333632,10.0034338 66.0187548,9.71861901 64.9855814,9.728 C63.958999,9.71795236 62.9510349,10.0029749 62.0809884,10.5493333 C61.2004003,11.0991953 60.4837431,11.8766326 60.0062791,12.8 C59.4948625,13.7877989 59.2353394,14.8871718 59.2508721,16 C59.2326576,17.1131213 59.4923341,18.2131442 60.0062791,19.2 C60.4803827,20.1223244 61.1933379,20.8997325 62.0703488,21.4506667 C62.9403953,21.9970251 63.9483595,22.2820476 64.9749419,22.272 C67.0905786,22.2908148 69.0316699,21.0983471 69.9755233,19.2 C70.9554297,17.1797667 70.9554297,14.8202333 69.9755233,12.8 L69.9755233,12.8 Z" id="Shape" fill="#2A2E38"></path>
            <path d="M85.307093,8.37333333 C85.9968373,8.53380133 86.6501855,8.82331041 87.2328488,9.22666667 C87.6379932,9.47866264 87.8958631,9.91219334 87.9244186,10.3893333 C87.9245797,10.6090058 87.8451845,10.8212662 87.7009884,10.9866667 C87.568181,11.15724 87.3635539,11.2558693 87.1477326,11.2533333 C86.9768611,11.2608497 86.8073088,11.2202012 86.658314,11.136 C86.5039357,11.0347655 86.3612065,10.9167136 86.2327326,10.784 C86.0160347,10.5570579 85.7646213,10.3662166 85.4879651,10.2186667 C85.1131911,10.0574706 84.720156,9.9428415 84.3176163,9.87733333 C83.8012767,9.78683476 83.2777482,9.74398875 82.7536047,9.74933333 C81.6985844,9.7374579 80.6618607,10.0259656 79.7638953,10.5813333 C78.8656602,11.1307878 78.1308361,11.9116876 77.6359884,12.8426667 C77.1085549,13.8252541 76.8411498,14.9269814 76.8593023,16.0426667 C76.8456833,17.1540309 77.1012505,18.252112 77.6040698,19.2426667 C78.5655462,21.160086 80.5388778,22.3545698 82.6791279,22.3146667 C83.2520272,22.328854 83.8243183,22.267893 84.3814535,22.1333333 C84.8199262,22.0114057 85.2443181,21.8433613 85.6475581,21.632 C85.8978538,21.4719236 86.1361085,21.2936681 86.360407,21.0986667 C86.4896505,20.9838583 86.6284726,20.8803683 86.7753488,20.7893333 C86.8912345,20.720132 87.0234885,20.6833011 87.1583721,20.6826667 C87.3695244,20.67374 87.5745171,20.7551707 87.7222674,20.9066667 C87.8674488,21.0665237 87.9439078,21.2773222 87.9350581,21.4933333 C87.8614967,21.9351163 87.6017688,22.3237585 87.2222093,22.56 C86.6339182,23.00764 85.971094,23.3471203 85.2645349,23.5626667 C84.3706764,23.84923 83.4366392,23.9896929 82.4982558,23.9786667 C81.1367625,23.9917741 79.7988306,23.6222579 78.6361047,22.912 C77.5106002,22.2290768 76.5998107,21.2420284 76.0081395,20.064 C75.4031245,18.7974762 75.1111762,17.4035265 75.1569767,16 C75.1392457,14.6156413 75.4646177,13.2485261 76.1038953,12.0213333 C77.3819,9.55130011 79.9466953,8.02172744 82.721686,8.07466667 C83.5925889,8.06479057 84.4612537,8.16513889 85.307093,8.37333333 L85.307093,8.37333333 Z" id="Shape" fill="#2A2E38"></path>
            <path d="M91.3290698,5.87733333 C91.1056306,5.66439086 90.9853045,5.3647543 90.9992442,5.056 L90.9992442,4.75733333 C90.9787759,4.44530843 91.1046821,4.1415742 91.3397093,3.936 C91.6099303,3.73679292 91.9411695,3.63867724 92.2759884,3.65866667 C93.070407,3.65866667 93.4676163,4.01422222 93.4676163,4.72533333 L93.4676163,5.024 C93.4870817,5.32948041 93.3747042,5.62862283 93.1590698,5.84533333 C92.9041696,6.05137921 92.5814853,6.1541403 92.2547093,6.13333333 C91.9253941,6.16349861 91.5963812,6.07250497 91.3290698,5.87733333 L91.3290698,5.87733333 Z M92.8930814,23.3813333 C92.6373033,23.6431306 92.2482881,23.7223844 91.910876,23.5814376 C91.5734639,23.4404907 91.3556738,23.1077565 91.3609884,22.7413333 L91.3609884,9.04533333 C91.323658,8.70385528 91.4843539,8.37104095 91.7746675,8.1885703 C92.0649812,8.00609964 92.4337979,8.00609964 92.7241115,8.1885703 C93.0144251,8.37104095 93.1751211,8.70385528 93.1377907,9.04533333 L93.1377907,22.7413333 C93.1449178,22.9809428 93.0524305,23.2127508 92.8824419,23.3813333 L92.8930814,23.3813333 Z" id="Shape" fill="#2A2E38"></path>
            <path d="M110.724942,8.69333333 C110.895045,8.87054712 110.987044,9.10881792 110.980291,9.35466667 L110.980291,22.752 C111.017621,23.0934781 110.856925,23.4262924 110.566612,23.608763 C110.276298,23.7912337 109.907481,23.7912337 109.617168,23.608763 C109.326854,23.4262924 109.166158,23.0934781 109.203488,22.752 L109.203488,20.7573333 C108.669565,21.6910387 107.903452,22.4701297 106.979826,23.0186667 C106.023523,23.6215073 104.917599,23.9430431 103.787965,23.9466667 C102.516991,23.9558288 101.272221,23.5844167 100.213081,22.88 C99.1420947,22.1686617 98.2820679,21.181162 97.7234302,20.0213333 C97.0929787,18.7746807 96.7614527,17.3977134 96.7552326,16 C96.73425,14.5905168 97.051725,13.1966498 97.6808721,11.936 C98.2486037,10.7870691 99.1163463,9.81389861 100.191802,9.12 C102.255354,7.82399561 104.861554,7.76666043 106.979826,8.97066667 C107.914755,9.48539927 108.685587,10.2544996 109.203488,11.1893333 L109.203488,9.344 C109.196735,9.09815125 109.288734,8.85988045 109.458837,8.68266667 C109.626936,8.5106638 109.857018,8.41373604 110.097209,8.41373604 C110.337401,8.41373604 110.567482,8.5106638 110.735581,8.68266667 L110.724942,8.69333333 Z M106.681919,21.4933333 C107.516793,20.9289072 108.182543,20.147146 108.607674,19.232 C109.079652,18.2321402 109.319722,17.1381298 109.309884,16.032 C109.327723,14.9250491 109.087258,13.8292387 108.607674,12.832 C108.179585,11.9216354 107.51425,11.1440469 106.681919,10.5813333 C105.859518,10.0342671 104.891895,9.74807203 103.905,9.76 C102.920838,9.74564677 101.954509,10.0240356 101.128081,10.56 C100.293269,11.1153231 99.6270188,11.8902917 99.2023256,12.8 C98.7227419,13.7972387 98.4822768,14.8930491 98.5001163,16 C98.4883139,17.10402 98.7208739,18.1969247 99.1810465,19.2 C99.5976578,20.1173948 100.260784,20.9004023 101.096163,21.4613333 C102.798698,22.5536224 104.979383,22.5536224 106.681919,21.4613333 L106.681919,21.4933333 Z" id="Shape" fill="#2A2E38"></path>
            <path d="M117.353372,23.3813333 C117.097594,23.6431306 116.708579,23.7223844 116.371167,23.5814376 C116.033755,23.4404907 115.815964,23.1077565 115.821279,22.7413333 L115.821279,2.47466667 C115.821279,1.97981953 116.221412,1.57866667 116.715,1.57866667 C117.208588,1.57866667 117.608721,1.97981953 117.608721,2.47466667 L117.608721,22.7413333 C117.615848,22.9809428 117.523361,23.2127508 117.353372,23.3813333 L117.353372,23.3813333 Z" id="Shape" fill="#2A2E38"></path>
            <path d="M120.906977,20.2666667 C120.966815,19.3962591 121.67558,18.7133713 122.545465,18.688 C123.002884,18.7059236 123.433229,18.9100885 123.737093,19.2533333 C124.264133,19.8198962 124.891964,20.2829263 125.588372,20.6186667 C126.323507,20.9354911 127.118541,21.0883522 127.91843,21.0666667 C129.464709,21.0097778 130.237849,20.4231111 130.237849,19.3066667 C130.253543,18.7526999 129.946047,18.240287 129.450523,17.9946667 C128.672785,17.6006194 127.851417,17.2998768 127.00343,17.0986667 C126.046279,16.8480641 125.107723,16.5308503 124.194593,16.1493333 C123.464111,15.8270701 122.821809,15.3331384 122.322035,14.7093333 C121.764429,13.9606021 121.485876,13.0397869 121.534709,12.1066667 C121.517837,11.2089116 121.806821,10.3322252 122.353953,9.62133333 C122.912766,8.90424347 123.645299,8.34242672 124.48186,7.98933333 C125.366743,7.59846511 126.323742,7.39858195 127.290698,7.40266667 C128.327183,7.40630705 129.354468,7.59783326 130.322965,7.968 C131.217478,8.29682185 132.007493,8.86045192 132.610465,9.6 C132.859541,9.89918802 132.995195,10.2769668 132.993488,10.6666667 C132.997775,11.1125273 132.787946,11.5332551 132.429593,11.7973333 C132.161127,12.013179 131.826801,12.1299264 131.482674,12.128 C131.086133,12.1414405 130.701483,11.9910445 130.418721,11.712 C130.046767,11.2533645 129.573153,10.8881167 129.035581,10.6453333 C128.432019,10.3812674 127.778905,10.2503114 127.120465,10.2613333 C125.616744,10.2613333 124.864884,10.8088889 124.864884,11.904 C124.846253,12.3024288 124.997054,12.6900847 125.279826,12.9706667 C125.583499,13.257001 125.946939,13.4719773 126.343779,13.6 C126.76936,13.7493333 127.368721,13.9342222 128.14186,14.1546667 C129.052991,14.3996879 129.945448,14.7098145 130.812384,15.0826667 C131.530655,15.4056564 132.153644,15.9089925 132.621105,16.544 C133.147422,17.3021411 133.409238,18.213334 133.365872,19.136 C133.383659,20.0604898 133.078842,20.9621811 132.50407,21.6853333 C131.921882,22.419514 131.159246,22.9892739 130.291047,23.3386667 C129.412468,23.7115121 128.468176,23.9037539 127.514128,23.904 C126.267986,23.9154797 125.030553,23.6948503 123.864767,23.2533333 C122.754398,22.8287777 121.792612,22.0870551 121.098488,21.12 C120.947944,20.8623429 120.881019,20.5641382 120.906977,20.2666667 L120.906977,20.2666667 Z" id="Shape" fill="#2A2E38"></path>
            <path d="M149.048547,9.216 C149.900381,10.7357255 150.302656,12.4673287 150.208256,14.208 L150.208256,21.824 C150.2249,22.3078837 150.04436,22.7777134 149.708198,23.1253333 C148.997663,23.8190453 147.865243,23.8190453 147.154709,23.1253333 C146.818547,22.7777134 146.638007,22.3078837 146.654651,21.824 L146.654651,14.1973333 C146.706683,13.2895944 146.46811,12.3889278 145.973721,11.6266667 C145.392436,10.9439882 144.512637,10.5927674 143.622384,10.688 C142.623492,10.629737 141.645145,10.9888643 140.919942,11.68 C140.26434,12.3498136 139.910659,13.2593957 139.941105,14.1973333 L139.941105,21.8133333 C139.958995,22.2974265 139.778274,22.7677301 139.441047,23.1146667 C138.730512,23.8083787 137.598092,23.8083787 136.887558,23.1146667 C136.550331,22.7677301 136.369609,22.2974265 136.3875,21.8133333 L136.3875,9.52533333 C136.373764,9.0451092 136.55409,8.57968234 136.887558,8.23466667 C137.598092,7.54095466 138.730512,7.54095466 139.441047,8.23466667 C139.774515,8.57968234 139.954841,9.0451092 139.941105,9.52533333 L139.941105,10.0266667 C140.521495,9.27633004 141.244799,8.64907628 142.069012,8.18133333 C142.922915,7.66557456 143.902251,7.39612427 144.899128,7.40266667 C146.89936,7.40977778 148.2825,8.01422222 149.048547,9.216 Z" id="Shape" fill="#2A2E38"></path>
            <path d="M168.210349,7.91466667 C168.550314,8.26418833 168.731255,8.73892184 168.710407,9.22666667 L168.710407,21.8133333 C168.727051,22.2972171 168.546511,22.7670467 168.210349,23.1146667 C167.876607,23.4605312 167.413432,23.6501434 166.933605,23.6373333 C166.45994,23.6566744 166.000148,23.4746126 165.6675,23.136 C165.336708,22.7919609 165.150117,22.3338385 165.146163,21.856 C164.586711,22.4784947 163.905968,22.9794637 163.14593,23.328 C162.316993,23.7309213 161.407268,23.9388675 160.486047,23.936 C159.171397,23.9484509 157.881431,23.5778905 156.772849,22.8693333 C155.650527,22.1452816 154.742893,21.1321805 154.144884,19.936 C153.482784,18.6131851 153.150556,17.1491199 153.176686,15.6693333 C153.152226,14.1921401 153.476703,12.730101 154.123605,11.4026667 C154.705933,10.2029926 155.603458,9.18516971 156.719651,8.45866667 C157.803368,7.75610539 159.067836,7.38543521 160.358372,7.392 C161.27434,7.38663884 162.182192,7.56432074 163.028895,7.91466667 C163.811089,8.22502559 164.531705,8.67294722 165.156802,9.23733333 L165.156802,9.23733333 C165.141388,8.75365768 165.321749,8.28429258 165.65686,7.936 C165.989845,7.58901545 166.453536,7.39919221 166.933605,7.41333333 C167.409809,7.39751561 167.87153,7.57881734 168.210349,7.91466667 L168.210349,7.91466667 Z M164.082209,19.2 C165.704226,17.103231 165.704226,14.1714357 164.082209,12.0746667 C163.292215,11.1677907 162.149839,10.6474441 160.948866,10.6474441 C159.747893,10.6474441 158.605517,11.1677907 157.815523,12.0746667 C156.204717,14.17527 156.204717,17.0993967 157.815523,19.2 C158.587865,20.125135 159.74074,20.6440723 160.943547,20.608 C162.148787,20.6410315 163.303647,20.1229629 164.082209,19.2 L164.082209,19.2 Z" id="Shape" fill="#2A2E38"></path>
            <path d="M184.510116,8.46933333 C185.632438,9.19338504 186.540072,10.2064862 187.138081,11.4026667 C187.79978,12.7256258 188.131985,14.1895907 188.106279,15.6693333 C188.130739,17.1465265 187.806262,18.6085657 187.15936,19.936 C186.577938,21.1362795 185.680217,22.1543236 184.563314,22.88 C183.480117,23.5837003 182.215303,23.9544721 180.924593,23.9466667 C179.995431,23.9498405 179.076779,23.7496241 178.232791,23.36 C177.444632,23.0230954 176.723733,22.5460884 176.104884,21.952 L176.104884,27.7333333 C176.121528,28.2172171 175.940988,28.6870467 175.604826,29.0346667 C175.271841,29.3816512 174.80815,29.5714745 174.328081,29.5573333 C173.851877,29.5731511 173.390156,29.3918493 173.051337,29.056 C172.711372,28.7064783 172.530431,28.2317448 172.551279,27.744 L172.551279,9.52533333 C172.537543,9.0451092 172.717869,8.57968234 173.051337,8.23466667 C173.761871,7.54095466 174.894291,7.54095466 175.604826,8.23466667 C175.938294,8.57968234 176.11862,9.0451092 176.104884,9.52533333 L176.104884,9.6 C176.652042,8.94424662 177.329686,8.4101946 178.094477,8.032 C178.915911,7.59104583 179.833224,7.36021686 180.765,7.36 C182.094719,7.35463892 183.396816,7.74033047 184.510116,8.46933333 Z M183.446163,19.232 C185.056969,17.1313967 185.056969,14.20727 183.446163,12.1066667 C182.640008,11.2240752 181.50119,10.7214811 180.3075,10.7214811 C179.11381,10.7214811 177.974992,11.2240752 177.168837,12.1066667 C175.546821,14.2034357 175.546821,17.135231 177.168837,19.232 C177.956946,20.1421004 179.10002,20.6647991 180.30218,20.6647991 C181.504341,20.6647991 182.647414,20.1421004 183.435523,19.232 L183.446163,19.232 Z" id="Shape" fill="#2A2E38"></path>
            <path d="M21.9280814,1.00266667 L29.0991279,4.94933333 C29.4608721,5.14133333 29.4608721,5.46133333 29.0991279,5.664 L13.3526163,14.3253333 L13.3526163,14.3253333 C11.756686,15.2213333 11.2247093,16.4586667 11.7779651,17.6 C11.7779651,17.696 11.7779651,17.792 11.597093,17.856 C11.3999648,17.9401837 11.1771282,17.9401837 10.98,17.856 L1.17034884,12.416 C0.808604651,12.224 0.808604651,11.904 1.17034884,11.7013333 L20.6300581,1.03466667 C21.0354795,0.827110134 21.5129745,0.815338512 21.9280814,1.00266667 Z" id="Shape" fill="#557CEB"></path>
            <path d="M8.34139535,30.9973333 L1.17034884,27.0506667 C0.808604651,26.8586667 0.808604651,26.5386667 1.17034884,26.336 L16.9168605,17.6746667 L16.9168605,17.6746667 C18.5127907,16.7786667 19.0447674,15.5413333 18.4915116,14.4 C18.4915116,14.304 18.4915116,14.208 18.6723837,14.144 C18.8695119,14.0598163 19.0923485,14.0598163 19.2894767,14.144 L29.0991279,19.5413333 C29.4608721,19.7333333 29.4608721,20.0533333 29.0991279,20.256 L9.6394186,30.9226667 C9.24053792,31.1439989 8.76290937,31.1714737 8.34139535,30.9973333 L8.34139535,30.9973333 Z" id="Shape" fill="#557CEB"></path>
        </g>
    </g>
</svg>