<svg width="80" height="80" viewBox="0 0 80 80" xmlns="http://www.w3.org/2000/svg"><title>Groupplaceholder</title><g fill="none" fill-rule="evenodd"><path d="M40 80C17.91 80 0 62.09 0 40S17.91 0 40 0s40 17.91 40 40-17.91 40-40 40zm8.854-59.587c-.54-.254-1.164-.24-1.69.038L21.797 34.426c-.475.268-.475.688 0 .936l12.787 7.045c.255.11.543.11.798 0 .247-.076.247-.21.247-.324-.703-1.47-.02-3.11 2.052-4.275l20.52-11.302c.475-.268.475-.688 0-.936l-9.348-5.154zM31.146 59.587c.54.254 1.164.24 1.69-.038l25.366-13.975c.475-.268.475-.688 0-.936l-12.787-7.045c-.255-.11-.543-.11-.798 0-.247.076-.247.21-.247.324.703 1.47.02 3.11-2.052 4.275l-20.52 11.302c-.475.268-.475.688 0 .936l9.348 5.154z" fill="#3A424A"/></g></svg>